<mxfile host="65bd71144e">
    <diagram id="9tg3SJVjGoA6f0Xj8tDZ" name="Page-1">
        <mxGraphModel dx="806" dy="497" grid="1" gridSize="10" guides="1" tooltips="1" connect="1" arrows="1" fold="1" page="1" pageScale="1" pageWidth="850" pageHeight="1100" math="0" shadow="0">
            <root>
                <mxCell id="0"/>
                <mxCell id="1" parent="0"/>
                <mxCell id="84" value="Borrower" style="swimlane;whiteSpace=wrap;html=1;" parent="1" vertex="1">
                    <mxGeometry x="40" y="63" width="270" height="857" as="geometry"/>
                </mxCell>
                <mxCell id="87" value="Start" style="ellipse;whiteSpace=wrap;html=1;" parent="84" vertex="1">
                    <mxGeometry x="105" y="40" width="60" height="40" as="geometry"/>
                </mxCell>
                <mxCell id="85" value="Tool Store" style="swimlane;whiteSpace=wrap;html=1;" parent="1" vertex="1">
                    <mxGeometry x="310" y="63" width="270" height="857" as="geometry"/>
                </mxCell>
                <mxCell id="91" value="Booking List" style="rounded=0;whiteSpace=wrap;html=1;" parent="85" vertex="1">
                    <mxGeometry x="90" y="130" width="100" height="50" as="geometry"/>
                </mxCell>
                <mxCell id="92" style="edgeStyle=none;html=1;entryX=0;entryY=0.5;entryDx=0;entryDy=0;" parent="1" source="89" target="91" edge="1">
                    <mxGeometry relative="1" as="geometry"/>
                </mxCell>
                <mxCell id="93" value="Yes" style="edgeLabel;html=1;align=center;verticalAlign=middle;resizable=0;points=[];" parent="92" vertex="1" connectable="0">
                    <mxGeometry x="-0.4526" y="-2" relative="1" as="geometry">
                        <mxPoint as="offset"/>
                    </mxGeometry>
                </mxCell>
                <mxCell id="105" value="Requesting Tools" style="swimlane;whiteSpace=wrap;html=1;" parent="1" vertex="1">
                    <mxGeometry x="40" y="40" width="540" height="880" as="geometry"/>
                </mxCell>
                <mxCell id="96" value="Scan Barcode/Select Tools" style="rounded=0;whiteSpace=wrap;html=1;" parent="105" vertex="1">
                    <mxGeometry x="359" y="360" width="100" height="50" as="geometry"/>
                </mxCell>
                <mxCell id="98" value="Scan/Input &lt;br&gt;ID Card" style="rounded=0;whiteSpace=wrap;html=1;" parent="105" vertex="1">
                    <mxGeometry x="359" y="460" width="100" height="50" as="geometry"/>
                </mxCell>
                <mxCell id="100" value="Scan/Input &lt;br&gt;Job Card" style="rounded=0;whiteSpace=wrap;html=1;" parent="105" vertex="1">
                    <mxGeometry x="359" y="560" width="100" height="50" as="geometry"/>
                </mxCell>
                <mxCell id="117" style="edgeStyle=orthogonalEdgeStyle;html=1;entryX=0;entryY=0.5;entryDx=0;entryDy=0;exitX=0;exitY=0.5;exitDx=0;exitDy=0;" parent="105" source="103" target="114" edge="1">
                    <mxGeometry relative="1" as="geometry"/>
                </mxCell>
                <mxCell id="118" value="Yes" style="edgeLabel;html=1;align=center;verticalAlign=middle;resizable=0;points=[];" parent="117" vertex="1" connectable="0">
                    <mxGeometry x="-0.512" y="1" relative="1" as="geometry">
                        <mxPoint as="offset"/>
                    </mxGeometry>
                </mxCell>
                <mxCell id="123" value="" style="edgeStyle=none;html=1;" parent="105" source="103" target="122" edge="1">
                    <mxGeometry relative="1" as="geometry"/>
                </mxCell>
                <mxCell id="103" value="Confirm?" style="rhombus;whiteSpace=wrap;html=1;" parent="105" vertex="1">
                    <mxGeometry x="89" y="540" width="90" height="90" as="geometry"/>
                </mxCell>
                <mxCell id="99" style="edgeStyle=none;html=1;" parent="105" source="96" target="98" edge="1">
                    <mxGeometry relative="1" as="geometry"/>
                </mxCell>
                <mxCell id="101" style="edgeStyle=none;html=1;" parent="105" source="98" target="100" edge="1">
                    <mxGeometry relative="1" as="geometry"/>
                </mxCell>
                <mxCell id="104" style="edgeStyle=orthogonalEdgeStyle;html=1;entryX=1;entryY=0.5;entryDx=0;entryDy=0;" parent="105" source="100" target="103" edge="1">
                    <mxGeometry relative="1" as="geometry"/>
                </mxCell>
                <mxCell id="109" style="edgeStyle=none;html=1;" parent="105" source="107" target="96" edge="1">
                    <mxGeometry relative="1" as="geometry"/>
                </mxCell>
                <mxCell id="110" value="Yes" style="edgeLabel;html=1;align=center;verticalAlign=middle;resizable=0;points=[];" parent="109" vertex="1" connectable="0">
                    <mxGeometry x="0.0551" y="2" relative="1" as="geometry">
                        <mxPoint as="offset"/>
                    </mxGeometry>
                </mxCell>
                <mxCell id="119" style="edgeStyle=orthogonalEdgeStyle;html=1;entryX=1;entryY=0.5;entryDx=0;entryDy=0;exitX=1;exitY=0.5;exitDx=0;exitDy=0;" parent="105" source="107" target="114" edge="1">
                    <mxGeometry relative="1" as="geometry">
                        <Array as="points">
                            <mxPoint x="500" y="280"/>
                            <mxPoint x="500" y="810"/>
                        </Array>
                    </mxGeometry>
                </mxCell>
                <mxCell id="120" value="No" style="edgeLabel;html=1;align=center;verticalAlign=middle;resizable=0;points=[];" parent="119" vertex="1" connectable="0">
                    <mxGeometry x="-0.6313" y="2" relative="1" as="geometry">
                        <mxPoint as="offset"/>
                    </mxGeometry>
                </mxCell>
                <mxCell id="107" value="Continue?" style="rhombus;whiteSpace=wrap;html=1;" parent="105" vertex="1">
                    <mxGeometry x="370" y="240" width="80" height="80" as="geometry"/>
                </mxCell>
                <mxCell id="114" value="End" style="ellipse;whiteSpace=wrap;html=1;" parent="105" vertex="1">
                    <mxGeometry x="104" y="790" width="60" height="40" as="geometry"/>
                </mxCell>
                <mxCell id="89" value="Booking?" style="rhombus;whiteSpace=wrap;html=1;" parent="105" vertex="1">
                    <mxGeometry x="95" y="137" width="80" height="80" as="geometry"/>
                </mxCell>
                <mxCell id="95" value="No" style="edgeStyle=orthogonalEdgeStyle;html=1;entryX=0;entryY=0.5;entryDx=0;entryDy=0;exitX=0.5;exitY=1;exitDx=0;exitDy=0;" parent="105" source="89" target="96" edge="1">
                    <mxGeometry relative="1" as="geometry">
                        <mxPoint x="134" y="360" as="targetPoint"/>
                    </mxGeometry>
                </mxCell>
                <mxCell id="124" style="edgeStyle=none;html=1;entryX=0.5;entryY=0;entryDx=0;entryDy=0;" parent="105" source="122" target="114" edge="1">
                    <mxGeometry relative="1" as="geometry"/>
                </mxCell>
                <mxCell id="125" value="No" style="edgeLabel;html=1;align=center;verticalAlign=middle;resizable=0;points=[];" parent="124" vertex="1" connectable="0">
                    <mxGeometry x="0.05" y="1" relative="1" as="geometry">
                        <mxPoint as="offset"/>
                    </mxGeometry>
                </mxCell>
                <mxCell id="126" style="edgeStyle=orthogonalEdgeStyle;html=1;entryX=1;entryY=0.5;entryDx=0;entryDy=0;" parent="105" source="122" target="96" edge="1">
                    <mxGeometry relative="1" as="geometry">
                        <Array as="points">
                            <mxPoint x="480" y="705"/>
                            <mxPoint x="480" y="385"/>
                        </Array>
                    </mxGeometry>
                </mxCell>
                <mxCell id="127" value="Yes" style="edgeLabel;html=1;align=center;verticalAlign=middle;resizable=0;points=[];" parent="126" vertex="1" connectable="0">
                    <mxGeometry x="-0.6822" y="1" relative="1" as="geometry">
                        <mxPoint as="offset"/>
                    </mxGeometry>
                </mxCell>
                <mxCell id="122" value="Edit?" style="rhombus;whiteSpace=wrap;html=1;" parent="105" vertex="1">
                    <mxGeometry x="89" y="660" width="90" height="90" as="geometry"/>
                </mxCell>
                <mxCell id="108" style="edgeStyle=none;html=1;" parent="1" source="91" target="107" edge="1">
                    <mxGeometry relative="1" as="geometry"/>
                </mxCell>
                <mxCell id="90" style="edgeStyle=none;html=1;" parent="1" source="87" target="89" edge="1">
                    <mxGeometry relative="1" as="geometry"/>
                </mxCell>
            </root>
        </mxGraphModel>
    </diagram>
    <diagram id="g8Oo1g67yZO7Sbj5kCP9" name="Page-2">
        <mxGraphModel dx="806" dy="497" grid="1" gridSize="10" guides="1" tooltips="1" connect="1" arrows="1" fold="1" page="1" pageScale="1" pageWidth="850" pageHeight="1100" math="0" shadow="0">
            <root>
                <mxCell id="0"/>
                <mxCell id="1" parent="0"/>
            </root>
        </mxGraphModel>
    </diagram>
</mxfile>